<svg width="20" height="20" viewBox="0 0 24 24" fill="none" xmlns="http://www.w3.org/2000/svg">
  <path fill-rule="evenodd" clip-rule="evenodd" d="M3 4C2.44771 4 2 4.44772 2 5C2 5.55228 2.44771 6 3 6H21C21.5523 6 22 5.55228 22 5C22 4.44772 21.5523 4 21 4H3ZM5 9C4.44771 9 4 9.44772 4 10C4 10.5523 4.44771 11 5 11H19C19.5523 11 20 10.5523 20 10C20 9.44772 19.5523 9 19 9H5ZM7 14C6.44771 14 6 14.4477 6 15C6 15.5523 6.44771 16 7 16H17C17.5523 16 18 15.5523 18 15C18 14.4477 17.5523 14 17 14H7ZM9 19C8.44771 19 8 19.4477 8 20C8 20.5523 8.44771 21 9 21H15C15.5523 21 16 20.5523 16 20C16 19.4477 15.5523 19 15 19H9Z" fill="#000000"/>
</svg>
